<svg xmlns="http://www.w3.org/2000/svg" viewBox="0 0 24 24" width="100%" height="100%">
  <!-- Background Circle -->
  <circle cx="12" cy="12" r="11" fill="#0C72D4" />
  
  <!-- Icon Elements -->
  <g transform="translate(6, 6) scale(0.5)" 
     stroke="#FFFFFF" 
     stroke-width="2" 
     stroke-linecap="round" 
     stroke-linejoin="round" 
     fill="none">
    
  <path d="M4.5 16.5c-1.5 1.26-2.5 3.19-2.5 5.5s3 1 5.5-.25c1.1-.55 1.5-1.75 1.5-2.75" />
  <path d="M12 10l-4 4" />
  <path d="M16.5 4.5c2.31-2.5 5.5-2.5 5.5-2.5s0 3.19-2.5 5.5c-2.31 2.31-5.5 3.5-5.5 3.5s-1.19-3.19 2.5-5.5z" />
  <path d="M7 17l-3 3" />
  <path d="M10 14l-3 3" />

  </g>
</svg>