<svg xmlns="http://www.w3.org/2000/svg" viewBox="0 0 24 24" width="100%" height="100%">
  <!-- Background Circle -->
  <circle cx="12" cy="12" r="11" fill="#0C72D4" />
  
  <!-- Icon Elements -->
  <g transform="translate(6, 6) scale(0.5)" 
     stroke="#FFFFFF" 
     stroke-width="2" 
     stroke-linecap="round" 
     stroke-linejoin="round" 
     fill="none">
    
  <path d="M15 14c.2-1 .7-1.7 1.5-2.5 1-.9 1.5-2.2 1.5-3.5A5 5 0 0 0 8 8c0 1 .5 2.5 1.5 3.5.8.8 1.3 1.5 1.5 2.5" />
  <path d="M9 18h6" />
  <path d="M10 22h4" />
  <!-- Sparkles -->
  <path d="M12 2v2" />
  <path d="M20 12h-2" />
  <path d="M6 12H4" />
  <path d="M17.66 6.34l-1.42 1.42" />
  <path d="M7.76 16.24l-1.42 1.42" />
  <path d="M6.34 6.34l1.42 1.42" />
  <path d="M16.24 16.24l1.42 1.42" />

  </g>
</svg>