<svg xmlns="http://www.w3.org/2000/svg" viewBox="0 0 24 24" width="100%" height="100%">
  <!-- Background Circle -->
  <circle cx="12" cy="12" r="11" fill="#EBF3FC" />
  
  <!-- Icon Elements -->
  <g transform="translate(6, 6) scale(0.5)" 
     stroke="#0C72D4" 
     stroke-width="2" 
     stroke-linecap="round" 
     stroke-linejoin="round" 
     fill="none">
    
  <path d="M15 2H6a2 2 0 0 0-2 2v16a2 2 0 0 0 2 2h12a2 2 0 0 0 2-2V7Z" />
  <path d="M14 2v4a2 2 0 0 0 2 2h4" />
  <!-- Loop/Dependency arrows -->
  <path d="M7 14a2.5 2.5 0 0 1 4-2l1.5 1.5" />
  <path d="M12.5 10.5v3h-3" />
  <path d="M13 16a2.5 2.5 0 0 1-4 2l-1.5-1.5" />
  <path d="M7.5 19.5v-3h3" />

  </g>
</svg>