<svg xmlns="http://www.w3.org/2000/svg" viewBox="0 0 24 24" width="100%" height="100%">
  <!-- Background Circle -->
  <circle cx="12" cy="12" r="11" fill="#EBF3FC" />
  
  <!-- Icon Elements -->
  <g transform="translate(6, 6) scale(0.5)" 
     stroke="#0C72D4" 
     stroke-width="2" 
     stroke-linecap="round" 
     stroke-linejoin="round" 
     fill="none">
    
  <path d="M9.88 9.88a3 3 0 1 0 4.24 4.24" />
  <path d="M10.73 5.08A10.43 10.43 0 0 1 12 5c7 0 10 7 10 7a13.16 13.16 0 0 1-1.67 2.68" />
  <path d="M6.61 6.61A13.52 13.52 0 0 0 2 12s3 7 10 7a9.74 9.74 0 0 0 5.39-1.61" />
  <line x1="2" y1="2" x2="22" y2="22" />

  </g>
</svg>