<svg xmlns="http://www.w3.org/2000/svg" viewBox="0 0 24 24" width="100%" height="100%">
  <!-- Background Circle -->
  <circle cx="12" cy="12" r="11" fill="#EBF3FC" />
  
  <!-- Icon Elements -->
  <g transform="translate(6, 6) scale(0.5)" 
     stroke="#0C72D4" 
     stroke-width="2" 
     stroke-linecap="round" 
     stroke-linejoin="round" 
     fill="none">
    
  <!-- Circular refresh loops (Radius 9) with simplified arrowheads (no horizontal wings) -->
  <path d="M21 12a9 9 0 0 0-9-9 8.5 8.5 0 0 0-6 2.5L3.5 8" />
  <path d="M3.5 3v5" />
  
  <path d="M3 12a9 9 0 0 0 9 9 8.5 8.5 0 0 0 6-2.5l2.5-2.5" />
  <path d="M20.5 21v-5" />
  
  <!-- Standard-sized Percent sign in center -->
  <circle cx="9.5" cy="9.5" r="1.2" />
  <line x1="14.5" y1="9.5" x2="9.5" y2="14.5" />
  <circle cx="14.5" cy="14.5" r="1.2" />

  </g>
</svg>